<svg width="30" height="30" viewBox="0 0 30 30" fill="none" xmlns="http://www.w3.org/2000/svg">
<path d="M8.01337 6.45333L5.61337 4.06666L3.73337 5.94666L6.12004 8.33333L8.01337 6.45333ZM4.33337 14H0.333374V16.6667H4.33337V14ZM16.3334 0.73333H13.6667V4.66666H16.3334V0.73333ZM26.2667 5.94666L24.3867 4.06666L22 6.45333L23.88 8.33333L26.2667 5.94666ZM21.9867 24.2133L24.3734 26.6133L26.2534 24.7333L23.8534 22.3467L21.9867 24.2133ZM25.6667 14V16.6667H29.6667V14H25.6667ZM15 7.33333C10.5867 7.33333 7.00004 10.92 7.00004 15.3333C7.00004 19.7467 10.5867 23.3333 15 23.3333C19.4134 23.3333 23 19.7467 23 15.3333C23 10.92 19.4134 7.33333 15 7.33333ZM13.6667 29.9333H16.3334V26H13.6667V29.9333ZM3.73337 24.72L5.61337 26.6L8.00004 24.2L6.12004 22.32L3.73337 24.72Z" fill="white"/>
</svg>
